<?xml version="1.0" standalone="no"?>
<!DOCTYPE svg PUBLIC "-//W3C//DTD SVG 20010904//EN"
 "http://www.w3.org/TR/2001/REC-SVG-20010904/DTD/svg10.dtd">
<svg version="1.0" xmlns="http://www.w3.org/2000/svg"
 width="1024.000000pt" height="1024.000000pt" viewBox="0 0 1024.000000 1024.000000"
 preserveAspectRatio="xMidYMid meet">
<metadata>
Created by potrace 1.14, written by Peter Selinger 2001-2017
</metadata>
<g transform="translate(0.000000,1024.000000) scale(0.100000,-0.100000)"
fill="#000000" stroke="none">
<path d="M4865 8634 c-16 -2 -79 -9 -140 -15 -398 -40 -838 -173 -1221 -370
-1118 -576 -1851 -1722 -1901 -2971 l-6 -158 -800 0 -800 0 7 -182 c34 -949
323 -1851 841 -2633 204 -308 405 -555 655 -805 793 -793 1827 -1306 2930
-1454 253 -34 372 -41 690 -41 400 0 658 25 1012 96 1546 311 2862 1319 3572
2736 325 650 506 1365 533 2106 l6 177 -800 0 -800 0 -6 158 c-61 1541 -1154
2881 -2657 3257 -300 75 -469 95 -810 100 -151 2 -288 1 -305 -1z m465 -644
c968 -72 1829 -621 2305 -1470 389 -693 467 -1539 214 -2303 -101 -304 -276
-633 -453 -852 l-24 -30 -1024 1021 c-893 890 -1032 1024 -1084 1050 -171 84
-378 4 -443 -171 -30 -80 -27 -187 8 -260 19 -40 224 -250 1047 -1075 563
-564 1024 -1028 1024 -1032 0 -4 -46 -40 -102 -81 -907 -657 -2129 -721 -3104
-163 -715 410 -1224 1110 -1389 1914 -157 762 -8 1534 420 2177 576 864 1573
1352 2605 1275z"/>
</g>
</svg>
